<svg width="513" height="534" viewBox="0 0 513 534" fill="none" xmlns="http://www.w3.org/2000/svg">
<rect y="48.3928" width="330.498" height="408.509" rx="12.5824" transform="rotate(-6.5 0 48.3928)" fill="#EBEBEB"/>
<rect x="22.5663" y="68.6165" width="290.234" height="170.282" rx="6.71061" transform="rotate(-6.5 22.5663 68.6165)" fill="#D9D9D9"/>
<rect x="49.9142" y="308.646" width="290.234" height="24.326" rx="6.71061" transform="rotate(-6.5 49.9142 308.646)" fill="#D9D9D9"/>
<rect x="55.3268" y="356.151" width="182.025" height="24.326" rx="6.71061" transform="rotate(-6.5 55.3268 356.151)" fill="#D9D9D9"/>
<rect x="60.7394" y="403.657" width="245.776" height="24.326" rx="6.71061" transform="rotate(-6.5 60.7394 403.657)" fill="#D9D9D9"/>
<rect x="44.5016" y="261.14" width="290.234" height="24.326" rx="6.71061" transform="rotate(-6.5 44.5016 261.14)" fill="#D9D9D9"/>
<rect x="149.942" y="0.576721" width="372.607" height="460.558" rx="14.1856" transform="rotate(13 149.942 0.576721)" fill="#EBEBEB"/>
<rect x="166.314" y="30.562" width="327.214" height="191.978" rx="7.56563" transform="rotate(13 166.314 30.562)" fill="#D9D9D9"/>
<rect x="105.045" y="295.944" width="327.214" height="27.4254" rx="7.56563" transform="rotate(13 105.045 295.944)" fill="#D9D9D9"/>
<rect x="92.9194" y="348.468" width="205.218" height="27.4254" rx="7.56563" transform="rotate(13 92.9194 348.468)" fill="#D9D9D9"/>
<rect x="80.7934" y="400.991" width="277.091" height="27.4254" rx="7.56563" transform="rotate(13 80.7934 400.991)" fill="#D9D9D9"/>
<rect x="117.171" y="243.421" width="327.214" height="27.4254" rx="7.56563" transform="rotate(13 117.171 243.421)" fill="#D9D9D9"/>
</svg>
